<svg xmlns="http://www.w3.org/2000/svg" viewBox="0 0 256 256" style="enable-background:new 0 0 256 256" xml:space="preserve"><style>.st6{fill:#c5e5ff}.st9{fill:#efefef}.st10{fill:#fc5d3d}.st13{fill:#afafaf}</style><g id="Layer_1"><path class="st13" d="M226.34 64.28H190.1l12.26 12.26v112.7h-49.03v15.27h98.07V89.34l-25.06-25.06z"/><path d="M210.359 73.231v119.01a5 5 0 0 1-5 5h-52.03v-8h49.03V76.543l-12.26-12.262h11.31l8.95 8.95z" style="fill:#878787"/><path d="M251.39 89.34h-23.341a1.712 1.712 0 0 1-1.712-1.712V64.287L251.39 89.34z" style="fill:#4c4945"/><path style="fill:#f0c020" d="m217.539 132.541 1.4 18.07-8.58-3.64-8-3.4v-43.99l8 12.88 1.39 2.24 17.44 4.37z"/><path style="fill:#f0ab20" d="M210.359 112.461v34.51l-8-3.4v-43.99z"/><path d="m190.1 64.28-12.8-12.79h-73v51.78h.78c7.35 0 13.32 5.97 13.32 13.32v21.93c0 7.35-5.97 13.32-13.32 13.32h-.78v37.4h98.06V76.54L190.1 64.28z" style="fill:#72c1e8"/><path class="st13" d="m190.1 64.28-12.8-12.79v23.34c0 .95.77 1.71 1.72 1.71h23.34L190.1 64.28z"/><g><path class="st6" d="M192.714 180.747h-4.851a2.5 2.5 0 1 1 0-5h4.851a2.5 2.5 0 1 1 0 5zm-14.85 0h-64.18a2.5 2.5 0 0 1-2.5-2.5v-17.82a2.5 2.5 0 1 1 5 0v15.32h61.68a2.5 2.5 0 1 1 0 5zM113.684 94.685a2.5 2.5 0 0 1-2.5-2.5V61.791a2.5 2.5 0 1 1 5 0v30.394a2.5 2.5 0 0 1-2.5 2.5z"/></g><g><path class="st10" d="m155.57 97.006-23.975 37.874h47.951z"/></g><g><path class="st10" d="M4.601 162.933h37.961a2.852 2.852 0 0 0 2.852-2.852V95.036a2.852 2.852 0 0 0-2.852-2.852H4.601v70.749z"/><path class="st9" d="M45.414 97.637h-.004v59.854h14.587c2.555 0 4.614-2.087 4.621-4.624l.001-.012V102.247c0-2.398-1.973-4.615-4.619-4.615H45.414v.005z"/><path d="M105.079 103.27H81.269l2.47-5.27c1.75-3.75.14-8.27-3.65-10.03-3.79-1.76-8.28-.12-10.03 3.65l-5.44 11.65v48.57h40.46c7.35 0 13.32-5.97 13.32-13.32v-21.93c0-7.35-5.97-13.32-13.32-13.32z" style="fill:#ffb69f"/><path d="M33.797 155.373a2.5 2.5 0 0 1-2.5-2.5v-2a2.5 2.5 0 1 1 5 0v2a2.5 2.5 0 0 1-2.5 2.5zm0-12a2.5 2.5 0 0 1-2.5-2.5v-36.825h-14.39a2.5 2.5 0 1 1 0-5h16.89a2.5 2.5 0 0 1 2.5 2.5v39.325a2.5 2.5 0 0 1-2.5 2.5z" style="fill:#ffcbc2"/></g><path class="st9" d="M240.999 197.261H221.75a2.5 2.5 0 1 1 0-5h16.749v-77.834a2.5 2.5 0 1 1 5 0v80.334a2.5 2.5 0 0 1-2.5 2.5zm0-90.334a2.5 2.5 0 0 1-2.5-2.5v-4a2.5 2.5 0 1 1 5 0v4a2.5 2.5 0 0 1-2.5 2.5z"/><g><path d="m181.658 133.543-23.976-37.874c-.979-1.547-3.243-1.551-4.225 0l-23.976 37.874c-1.052 1.661.144 3.837 2.112 3.837h47.952c1.967 0 3.166-2.175 2.113-3.837zm-45.522-1.163 19.435-30.7 19.434 30.7h-38.869z"/><circle cx="45.41" cy="122.52" r="2.5"/><path d="M253.16 87.569 228.1 62.51a2.524 2.524 0 0 0-1.76-.729h-35.199L179.08 49.72a2.653 2.653 0 0 0-1.786-.729H104.3a2.5 2.5 0 0 0-2.5 2.5v49.282H85.198L86 99.056c2.342-5.01.182-11.007-4.861-13.356-5.021-2.337-11.012-.154-13.35 4.859l-3.001 6.437A7.086 7.086 0 0 0 60 95.131H47.91v-.091c0-2.95-2.4-5.351-5.35-5.36H4.6c-1.38 0-2.5 1.13-2.5 2.5a2.5 2.5 0 0 0 2.5 2.5h37.96c.2 0 .35.16.35.36v17.479c0 1.38 1.13 2.5 2.5 2.5a2.5 2.5 0 0 0 2.5-2.5V100.13H60c1.268 0 2.119 1.095 2.12 2.12v50.547c-.033 1.37-1.045 2.192-2.123 2.192H47.91V132.52a2.5 2.5 0 0 0-2.5-2.5c-1.37 0-2.5 1.12-2.5 2.5v27.561c0 .189-.15.35-.35.35H4.6a2.5 2.5 0 0 0 0 5h37.96c2.95 0 5.35-2.399 5.35-5.35v-.09h12.086c3.411 0 6.273-2.423 6.962-5.647H101.8v34.897c0 1.368 1.098 2.5 2.5 2.5h46.53v12.77c0 1.377 1.103 2.5 2.5 2.5h98.07c1.348 0 2.5-1.093 2.5-2.5v-46.66c0-1.38-1.13-2.5-2.5-2.5a2.5 2.5 0 0 0-2.5 2.5v44.16h-93.07v-10.27h15.23a2.499 2.499 0 0 0 .01-5H106.8v-32.496c7.916-.862 14.098-7.582 14.098-15.724v-21.927c0-8.141-6.183-14.861-14.098-15.723V53.99h68.003v20.84a4.218 4.218 0 0 0 4.212 4.213h20.844V186.74h-8.8a2.5 2.5 0 0 0 0 5h11.3c1.378 0 2.5-1.114 2.5-2.5v-41.892l13.103 5.564c1.723.73 3.613-.626 3.469-2.495l-1.319-17.029 10.968-12.682c1.22-1.412.516-3.61-1.284-4.061l-16.458-4.124-8.479-13.652V76.54c0-.67-.26-1.3-.73-1.771l-7.989-7.989h27.696v20.848a4.218 4.218 0 0 0 4.212 4.213H248.9v46.009a2.5 2.5 0 0 0 5 0V89.34c0-.67-.26-1.29-.74-1.771zm-137.262 29.025v.696h-24.39a2.5 2.5 0 1 0 0 5h24.39v10.542h-24.39a2.5 2.5 0 1 0 0 5h24.39v.688c0 5.95-4.836 10.819-10.818 10.819 0 0 .734.003-37.96.003v-45.517l5.201-11.154c1.175-2.52 4.184-3.613 6.709-2.44a5.055 5.055 0 0 1 2.441 6.707l-2.465 5.275c-.773 1.654.436 3.559 2.265 3.559h23.806c5.967 0 10.821 4.855 10.821 10.822zm63.905-59.072 8.525 8.521.009.009 7.995 7.991h-16.529V57.522zm29.822 58.497c.343.552.886.949 1.517 1.106l13.499 3.383-8.993 10.397a2.501 2.501 0 0 0-.602 1.829l1.083 13.968-11.269-4.786v-33.571l4.765 7.674zm19.212-45.702 16.524 16.524h-16.524V70.317z"/><circle cx="251.4" cy="147.85" r="2.5"/><path d="M181.05 191.74a2.51 2.51 0 0 0 2.51-2.5c0-1.381-1.13-2.5-2.51-2.5a2.498 2.498 0 0 0-2.49 2.5c0 1.38 1.12 2.5 2.49 2.5z"/></g></g></svg>